<svg xmlns="http://www.w3.org/2000/svg" width="1000" height="720" viewBox="0 0 1000 720" role="img"><rect width="100%" height="100%" fill="#0b1020"/>
<style>
.title{font:700 24px system-ui,-apple-system,Segoe UI,sans-serif;fill:#f8fafc}.subtitle{font:500 13px system-ui,-apple-system,Segoe UI,sans-serif;fill:#cbd5e1}.label{font:600 13px system-ui,-apple-system,Segoe UI,sans-serif;fill:#e5e7eb}.small{font:500 11px system-ui,-apple-system,Segoe UI,sans-serif;fill:#cbd5e1}.tiny{font:500 10px system-ui,-apple-system,Segoe UI,sans-serif;fill:#94a3b8}.arrow{stroke:#94a3b8;stroke-width:2;fill:none;marker-end:url(#arrow)}.arrowBlue{stroke:#60a5fa;stroke-width:2.5;fill:none;marker-end:url(#arrowBlue)}.arrowOrange{stroke:#fb923c;stroke-width:2.5;fill:none;marker-end:url(#arrowOrange)}
</style>
<defs>
<marker id="arrow" viewBox="0 0 10 10" refX="9" refY="5" markerWidth="7" markerHeight="7" orient="auto-start-reverse"><path d="M0 0L10 5L0 10z" fill="#94a3b8"/></marker>
<marker id="arrowBlue" viewBox="0 0 10 10" refX="9" refY="5" markerWidth="7" markerHeight="7" orient="auto-start-reverse"><path d="M0 0L10 5L0 10z" fill="#60a5fa"/></marker>
<marker id="arrowOrange" viewBox="0 0 10 10" refX="9" markerWidth="7" markerHeight="7" refY="5" orient="auto-start-reverse"><path d="M0 0L10 5L0 10z" fill="#fb923c"/></marker>
</defs>
<text class="title" x="40" y="42">Apparent positions: observer-sky calculation vs line to drawn FE vault</text><text class="subtitle" x="40" y="65">Observer 32.0°, -100.8387° • 2026-05-07T23:49:57.784Z • refraction off</text><circle cx="350" cy="380" r="0" fill="none" stroke="#334155" stroke-width="1"/><circle cx="350" cy="380" r="130.0" fill="none" stroke="#334155" stroke-width="2"/><text class="tiny" x="488.0" y="376">Horizon 0°</text><circle cx="350" cy="380" r="260" fill="none" stroke="#334155" stroke-width="1"/><text class="tiny" x="618" y="376">Nadir −90°</text><line x1="350" y1="120" x2="350" y2="640" stroke="#334155"/><line x1="90" y1="380" x2="610" y2="380" stroke="#334155"/><text class="label" x="345" y="108">N</text><text class="label" x="619" y="384">E</text><text class="label" x="345" y="662">S</text><text class="label" x="69" y="384">W</text><line x1="236.3" y1="358.3" x2="306.3" y2="348.6" stroke="#eab308" stroke-width="1.4" stroke-dasharray="4 4"/><circle cx="236.3" cy="358.3" r="6" fill="#2563eb" stroke="#bfdbfe" stroke-width="2"/><path d="M299.3 341.6L313.3 355.6M313.3 341.6L299.3 355.6" stroke="#f97316" stroke-width="3" stroke-linecap="round"/><text class="small" x="246.3" y="350.3">Sun</text><line x1="573.2" y1="293.1" x2="364.6" y2="295.8" stroke="#eab308" stroke-width="1.4" stroke-dasharray="4 4"/><circle cx="573.2" cy="293.1" r="6" fill="#2563eb" stroke="#bfdbfe" stroke-width="2"/><path d="M357.6 288.8L371.6 302.8M371.6 288.8L357.6 302.8" stroke="#f97316" stroke-width="3" stroke-linecap="round"/><text class="small" x="503.2" y="299.1">Moon</text><line x1="205.3" y1="339.9" x2="306.4" y2="332.3" stroke="#eab308" stroke-width="1.4" stroke-dasharray="4 4"/><circle cx="205.3" cy="339.9" r="6" fill="#2563eb" stroke="#bfdbfe" stroke-width="2"/><path d="M299.4 325.3L313.4 339.3M313.4 325.3L299.4 339.3" stroke="#f97316" stroke-width="3" stroke-linecap="round"/><text class="small" x="215.3" y="331.9">Mars</text><line x1="326.6" y1="390.9" x2="336.5" y2="383.7" stroke="#eab308" stroke-width="1.4" stroke-dasharray="4 4"/><circle cx="326.6" cy="390.9" r="6" fill="#2563eb" stroke="#bfdbfe" stroke-width="2"/><path d="M329.5 376.7L343.5 390.7M343.5 376.7L329.5 390.7" stroke="#f97316" stroke-width="3" stroke-linecap="round"/><text class="small" x="336.6" y="396.9">Jupiter</text><line x1="190.0" y1="334.2" x2="307.7" y2="325.0" stroke="#eab308" stroke-width="1.4" stroke-dasharray="4 4"/><circle cx="190.0" cy="334.2" r="6" fill="#2563eb" stroke="#bfdbfe" stroke-width="2"/><path d="M300.7 318.0L314.7 332.0M314.7 318.0L300.7 332.0" stroke="#f97316" stroke-width="3" stroke-linecap="round"/><text class="small" x="200.0" y="326.2">Saturn</text><line x1="317.3" y1="448.7" x2="318.0" y2="415.1" stroke="#eab308" stroke-width="1.4" stroke-dasharray="4 4"/><circle cx="317.3" cy="448.7" r="6" fill="#2563eb" stroke="#bfdbfe" stroke-width="2"/><path d="M311.0 408.1L325.0 422.1M325.0 408.1L311.0 422.1" stroke="#f97316" stroke-width="3" stroke-linecap="round"/><text class="small" x="327.3" y="454.7">Sirius</text><line x1="349.0" y1="296.4" x2="349.5" y2="331.6" stroke="#eab308" stroke-width="1.4" stroke-dasharray="4 4"/><circle cx="349.0" cy="296.4" r="6" fill="#2563eb" stroke="#bfdbfe" stroke-width="2"/><path d="M342.5 324.6L356.5 338.6M356.5 324.6L342.5 338.6" stroke="#f97316" stroke-width="3" stroke-linecap="round"/><text class="small" x="359.0" y="288.4">Polaris</text><line x1="462.4" y1="345.2" x2="401.6" y2="336.3" stroke="#eab308" stroke-width="1.4" stroke-dasharray="4 4"/><circle cx="462.4" cy="345.2" r="6" fill="#2563eb" stroke="#bfdbfe" stroke-width="2"/><path d="M394.6 329.3L408.6 343.3M408.6 329.3L394.6 343.3" stroke="#f97316" stroke-width="3" stroke-linecap="round"/><text class="small" x="392.4" y="351.2">Arcturus</text><line x1="398.6" y1="234.7" x2="363.7" y2="307.9" stroke="#eab308" stroke-width="1.4" stroke-dasharray="4 4"/><circle cx="398.6" cy="234.7" r="6" fill="#2563eb" stroke="#bfdbfe" stroke-width="2"/><path d="M356.7 300.9L370.7 314.9M370.7 300.9L356.7 314.9" stroke="#f97316" stroke-width="3" stroke-linecap="round"/><text class="small" x="328.6" y="226.7">Vega</text><line x1="301.1" y1="409.6" x2="310.5" y2="389.6" stroke="#eab308" stroke-width="1.4" stroke-dasharray="4 4"/><circle cx="301.1" cy="409.6" r="6" fill="#2563eb" stroke="#bfdbfe" stroke-width="2"/><path d="M303.5 382.6L317.5 396.6M317.5 382.6L303.5 396.6" stroke="#f97316" stroke-width="3" stroke-linecap="round"/><text class="small" x="311.1" y="415.6">Betelgeuse</text><rect x="660" y="112" width="296" height="520" rx="14" fill="#111827" stroke="#334155"/><text class="label" x="682" y="142">Legend / angular gaps</text><circle cx="690" cy="168" r="6" fill="#2563eb" stroke="#bfdbfe" stroke-width="2"/><text class="small" x="708" y="172">Blue: app optical-vault direction</text><path d="M684 191L696 203M696 191L684 203" stroke="#f97316" stroke-width="3" stroke-linecap="round"/><text class="small" x="708" y="201">Orange: line to FE vault</text><text class="small" x="682" y="250">Sun</text><text class="small" text-anchor="end" x="930" y="250">47.4°</text><rect x="682" y="257" width="220" height="7" rx="3" fill="#1f2937"/><rect x="682" y="257" width="94.8" height="7" rx="3" fill="#f97316"/><text class="small" x="682" y="298">Moon</text><text class="small" text-anchor="end" x="930" y="298">112.9°</text><rect x="682" y="305" width="220" height="7" rx="3" fill="#1f2937"/><rect x="682" y="305" width="220.0" height="7" rx="3" fill="#f97316"/><text class="small" x="682" y="346">Mars</text><text class="small" text-anchor="end" x="930" y="346">65.9°</text><rect x="682" y="353" width="220" height="7" rx="3" fill="#1f2937"/><rect x="682" y="353" width="131.9" height="7" rx="3" fill="#f97316"/><text class="small" x="682" y="394">Jupiter</text><text class="small" text-anchor="end" x="930" y="394">8.5°</text><rect x="682" y="401" width="220" height="7" rx="3" fill="#1f2937"/><rect x="682" y="401" width="16.9" height="7" rx="3" fill="#f97316"/><text class="small" x="682" y="442">Saturn</text><text class="small" text-anchor="end" x="930" y="442">75.2°</text><rect x="682" y="449" width="220" height="7" rx="3" fill="#1f2937"/><rect x="682" y="449" width="150.3" height="7" rx="3" fill="#f97316"/><text class="small" x="682" y="490">Sirius</text><text class="small" text-anchor="end" x="930" y="490">22.8°</text><rect x="682" y="497" width="220" height="7" rx="3" fill="#1f2937"/><rect x="682" y="497" width="45.5" height="7" rx="3" fill="#f97316"/><text class="small" x="682" y="538">Polaris</text><text class="small" text-anchor="end" x="930" y="538">24.3°</text><rect x="682" y="545" width="220" height="7" rx="3" fill="#1f2937"/><rect x="682" y="545" width="48.6" height="7" rx="3" fill="#f97316"/><text class="small" x="682" y="586">Arcturus</text><text class="small" text-anchor="end" x="930" y="586">40.1°</text><rect x="682" y="593" width="220" height="7" rx="3" fill="#1f2937"/><rect x="682" y="593" width="80.2" height="7" rx="3" fill="#f97316"/><text class="small" x="682" y="634">Vega</text><text class="small" text-anchor="end" x="930" y="634">55.7°</text><rect x="682" y="641" width="220" height="7" rx="3" fill="#1f2937"/><rect x="682" y="641" width="111.4" height="7" rx="3" fill="#f97316"/><text class="small" x="682" y="682">Betelgeuse</text><text class="small" text-anchor="end" x="930" y="682">14.9°</text><rect x="682" y="689" width="220" height="7" rx="3" fill="#1f2937"/><rect x="682" y="689" width="29.9" height="7" rx="3" fill="#f97316"/></svg>
