<svg xmlns="http://www.w3.org/2000/svg" width="1000" height="720" viewBox="0 0 1000 720" role="img"><rect width="100%" height="100%" fill="#0b1020"/>
<style>
.title{font:700 24px system-ui,-apple-system,Segoe UI,sans-serif;fill:#f8fafc}.subtitle{font:500 13px system-ui,-apple-system,Segoe UI,sans-serif;fill:#cbd5e1}.label{font:600 13px system-ui,-apple-system,Segoe UI,sans-serif;fill:#e5e7eb}.small{font:500 11px system-ui,-apple-system,Segoe UI,sans-serif;fill:#cbd5e1}.tiny{font:500 10px system-ui,-apple-system,Segoe UI,sans-serif;fill:#94a3b8}.arrow{stroke:#94a3b8;stroke-width:2;fill:none;marker-end:url(#arrow)}.arrowBlue{stroke:#60a5fa;stroke-width:2.5;fill:none;marker-end:url(#arrowBlue)}.arrowOrange{stroke:#fb923c;stroke-width:2.5;fill:none;marker-end:url(#arrowOrange)}
</style>
<defs>
<marker id="arrow" viewBox="0 0 10 10" refX="9" refY="5" markerWidth="7" markerHeight="7" orient="auto-start-reverse"><path d="M0 0L10 5L0 10z" fill="#94a3b8"/></marker>
<marker id="arrowBlue" viewBox="0 0 10 10" refX="9" refY="5" markerWidth="7" markerHeight="7" orient="auto-start-reverse"><path d="M0 0L10 5L0 10z" fill="#60a5fa"/></marker>
<marker id="arrowOrange" viewBox="0 0 10 10" refX="9" markerWidth="7" markerHeight="7" refY="5" orient="auto-start-reverse"><path d="M0 0L10 5L0 10z" fill="#fb923c"/></marker>
</defs>
<text class="title" x="40" y="42">Apparent positions: observer-sky calculation vs line to drawn FE vault</text><text class="subtitle" x="40" y="65">Observer 32.0°, -100.8387° • 2026-05-07T00:00:00.000Z • refraction off</text><circle cx="350" cy="380" r="0" fill="none" stroke="#334155" stroke-width="1"/><circle cx="350" cy="380" r="130.0" fill="none" stroke="#334155" stroke-width="2"/><text class="tiny" x="488.0" y="376">Horizon 0°</text><circle cx="350" cy="380" r="260" fill="none" stroke="#334155" stroke-width="1"/><text class="tiny" x="618" y="376">Nadir −90°</text><line x1="350" y1="120" x2="350" y2="640" stroke="#334155"/><line x1="90" y1="380" x2="610" y2="380" stroke="#334155"/><text class="label" x="345" y="108">N</text><text class="label" x="619" y="384">E</text><text class="label" x="345" y="662">S</text><text class="label" x="69" y="384">W</text><line x1="233.6" y1="355.7" x2="306.3" y2="346.9" stroke="#eab308" stroke-width="1.4" stroke-dasharray="4 4"/><circle cx="233.6" cy="355.7" r="6" fill="#2563eb" stroke="#bfdbfe" stroke-width="2"/><path d="M299.3 339.9L313.3 353.9M313.3 339.9L299.3 353.9" stroke="#f97316" stroke-width="3" stroke-linecap="round"/><text class="small" x="243.6" y="347.7">Sun</text><line x1="572.4" y1="372.7" x2="379.1" y2="299.8" stroke="#eab308" stroke-width="1.4" stroke-dasharray="4 4"/><circle cx="572.4" cy="372.7" r="6" fill="#2563eb" stroke="#bfdbfe" stroke-width="2"/><path d="M372.1 292.8L386.1 306.8M386.1 292.8L372.1 306.8" stroke="#f97316" stroke-width="3" stroke-linecap="round"/><text class="small" x="502.4" y="378.7">Moon</text><line x1="203.4" y1="336.4" x2="307.1" y2="330.8" stroke="#eab308" stroke-width="1.4" stroke-dasharray="4 4"/><circle cx="203.4" cy="336.4" r="6" fill="#2563eb" stroke="#bfdbfe" stroke-width="2"/><path d="M300.1 323.8L314.1 337.8M314.1 323.8L300.1 337.8" stroke="#f97316" stroke-width="3" stroke-linecap="round"/><text class="small" x="213.4" y="328.4">Mars</text><line x1="324.3" y1="390.5" x2="335.3" y2="383.3" stroke="#eab308" stroke-width="1.4" stroke-dasharray="4 4"/><circle cx="324.3" cy="390.5" r="6" fill="#2563eb" stroke="#bfdbfe" stroke-width="2"/><path d="M328.3 376.3L342.3 390.3M342.3 376.3L328.3 390.3" stroke="#f97316" stroke-width="3" stroke-linecap="round"/><text class="small" x="334.3" y="396.5">Jupiter</text><line x1="188.9" y1="330.8" x2="308.5" y2="323.9" stroke="#eab308" stroke-width="1.4" stroke-dasharray="4 4"/><circle cx="188.9" cy="330.8" r="6" fill="#2563eb" stroke="#bfdbfe" stroke-width="2"/><path d="M301.5 316.9L315.5 330.9M315.5 316.9L301.5 330.9" stroke="#f97316" stroke-width="3" stroke-linecap="round"/><text class="small" x="198.9" y="322.8">Saturn</text><line x1="314.9" y1="448.5" x2="315.9" y2="414.1" stroke="#eab308" stroke-width="1.4" stroke-dasharray="4 4"/><circle cx="314.9" cy="448.5" r="6" fill="#2563eb" stroke="#bfdbfe" stroke-width="2"/><path d="M308.9 407.1L322.9 421.1M322.9 407.1L308.9 421.1" stroke="#f97316" stroke-width="3" stroke-linecap="round"/><text class="small" x="324.9" y="454.5">Sirius</text><rect x="660" y="112" width="296" height="520" rx="14" fill="#111827" stroke="#334155"/><text class="label" x="682" y="142">Legend / angular gaps</text><circle cx="690" cy="168" r="6" fill="#2563eb" stroke="#bfdbfe" stroke-width="2"/><text class="small" x="708" y="172">Blue: app optical-vault direction</text><path d="M684 191L696 203M696 191L684 203" stroke="#f97316" stroke-width="3" stroke-linecap="round"/><text class="small" x="708" y="201">Orange: line to FE vault</text><text class="small" x="682" y="250">Sun</text><text class="small" text-anchor="end" x="930" y="250">49.0°</text><rect x="682" y="257" width="220" height="7" rx="3" fill="#1f2937"/><rect x="682" y="257" width="98.1" height="7" rx="3" fill="#f97316"/><text class="small" x="682" y="298">Moon</text><text class="small" text-anchor="end" x="930" y="298">108.8°</text><rect x="682" y="305" width="220" height="7" rx="3" fill="#1f2937"/><rect x="682" y="305" width="217.6" height="7" rx="3" fill="#f97316"/><text class="small" x="682" y="346">Mars</text><text class="small" text-anchor="end" x="930" y="346">67.5°</text><rect x="682" y="353" width="220" height="7" rx="3" fill="#1f2937"/><rect x="682" y="353" width="135.0" height="7" rx="3" fill="#f97316"/><text class="small" x="682" y="394">Jupiter</text><text class="small" text-anchor="end" x="930" y="394">9.1°</text><rect x="682" y="401" width="220" height="7" rx="3" fill="#1f2937"/><rect x="682" y="401" width="18.1" height="7" rx="3" fill="#f97316"/><text class="small" x="682" y="442">Saturn</text><text class="small" text-anchor="end" x="930" y="442">76.2°</text><rect x="682" y="449" width="220" height="7" rx="3" fill="#1f2937"/><rect x="682" y="449" width="152.4" height="7" rx="3" fill="#f97316"/><text class="small" x="682" y="490">Sirius</text><text class="small" text-anchor="end" x="930" y="490">23.2°</text><rect x="682" y="497" width="220" height="7" rx="3" fill="#1f2937"/><rect x="682" y="497" width="46.4" height="7" rx="3" fill="#f97316"/></svg>
