<svg xmlns="http://www.w3.org/2000/svg" width="1280" height="900" viewBox="0 0 1280 900" role="img">
<rect width="100%" height="100%" fill="#050b16"/>

<style>
  text{font-family:Arial,Helvetica,sans-serif}
  .title{font-size:24px;font-weight:700;fill:#f8fafc}
  .subtitle{font-size:13px;font-weight:500;fill:#cbd5e1}
  .label{font-size:12px;font-weight:700;fill:#f8fafc}
  .small{font-size:11px;font-weight:500;fill:#cbd5e1}
  .tiny{font-size:10px;font-weight:500;fill:#94a3b8}
</style>
<defs>
  <linearGradient id="sceneBg" x1="0" y1="0" x2="0" y2="1"><stop offset="0" stop-color="#111827"/><stop offset="1" stop-color="#07101f"/></linearGradient>
  <radialGradient id="discFill" cx="50%" cy="44%" r="65%"><stop offset="0" stop-color="#16243b"/><stop offset="1" stop-color="#0b1324"/></radialGradient>
  <clipPath id="sceneClip"><rect x="36" y="118" width="1208" height="696" rx="18"/></clipPath>
</defs>

<text class="title" x="42" y="46">3D dome mismatch: optical rays do not hit the whole-world vault markers</text>
<text class="subtitle" x="42" y="70">App defaults from cloned source • observer 32.0 deg, -100.8387 deg • 2026-05-07T23:49:57.784Z • 5 bodies + 5 stars</text>
<rect x="36" y="118" width="1208" height="696" rx="18" fill="url(#sceneBg)" stroke="#2b3d58"/>
<g clip-path="url(#sceneClip)">
<path d="M865.0 759.0L852.2 764.7L839.0 770.1L825.4 775.3L811.4 780.4L797.0 785.1L782.3 789.7L767.2 794.0L751.8 798.1L736.1 801.9L720.2 805.5L703.9 808.8L687.5 811.8L670.8 814.6L653.9 817.1L636.8 819.4L619.5 821.4L602.1 823.1L584.6 824.5L567.0 825.6L549.4 826.5L531.6 827.0L513.9 827.3L496.1 827.3L478.4 827.0L460.6 826.5L443.0 825.6L425.4 824.5L407.9 823.1L390.5 821.4L373.2 819.4L356.1 817.1L339.2 814.6L322.5 811.8L306.1 808.8L289.8 805.5L273.9 801.9L258.2 798.1L242.8 794.0L227.7 789.7L213.0 785.1L198.6 780.4L184.6 775.3L171.0 770.1L157.8 764.7L145.0 759.0L132.7 753.1L120.8 747.1L109.3 740.8L98.4 734.4L88.0 727.8L78.0 721.1L68.6 714.2L59.7 707.1L51.4 699.9L43.6 692.6L36.4 685.2L29.7 677.6L23.6 670.0L18.1 662.2L13.2 654.4L8.9 646.5L5.2 638.5L2.2 630.5L-0.3 622.4L-2.2 614.3L-3.4 606.2L-4.0 598.1L-4.0 589.9L-3.4 581.8L-2.2 573.7L-0.3 565.6L2.2 557.5L5.2 549.5L8.9 541.5L13.2 533.6L18.1 525.8L23.6 518.0L29.7 510.4L36.4 502.8L43.6 495.4L51.4 488.1L59.7 480.9L68.6 473.8L78.0 466.9L88.0 460.2L98.4 453.6L109.3 447.2L120.8 440.9L132.7 434.9L145.0 429.0L157.8 423.3L171.0 417.9L184.6 412.7L198.6 407.6L213.0 402.9L227.7 398.3L242.8 394.0L258.2 389.9L273.9 386.1L289.8 382.5L306.1 379.2L322.5 376.2L339.2 373.4L356.1 370.9L373.2 368.6L390.5 366.6L407.9 364.9L425.4 363.5L443.0 362.4L460.6 361.5L478.4 361.0L496.1 360.7L513.9 360.7L531.6 361.0L549.4 361.5L567.0 362.4L584.6 363.5L602.1 364.9L619.5 366.6L636.8 368.6L653.9 370.9L670.8 373.4L687.5 376.2L703.9 379.2L720.2 382.5L736.1 386.1L751.8 389.9L767.2 394.0L782.3 398.3L797.0 402.9L811.4 407.6L825.4 412.7L839.0 417.9L852.2 423.3L865.0 429.0L877.3 434.9L889.2 440.9L900.7 447.2L911.6 453.6L922.0 460.2L932.0 466.9L941.4 473.8L950.3 480.9L958.6 488.1L966.4 495.4L973.6 502.8L980.3 510.4L986.4 518.0L991.9 525.8L996.8 533.6L1001.1 541.5L1004.8 549.5L1007.8 557.5L1010.3 565.6L1012.2 573.7L1013.4 581.8L1014.0 589.9L1014.0 598.1L1013.4 606.2L1012.2 614.3L1010.3 622.4L1007.8 630.5L1004.8 638.5L1001.1 646.5L996.8 654.4L991.9 662.2L986.4 670.0L980.3 677.6L973.6 685.2L966.4 692.6L958.6 699.9L950.3 707.1L941.4 714.2L932.0 721.1L922.0 727.8L911.6 734.4L900.7 740.8L889.2 747.1L877.3 753.1L865.0 759.0" fill="url(#discFill)" stroke="#64748b" stroke-width="2.2" opacity="0.95"/>
<path d="M595.0 635.2L591.8 636.7L588.5 638.0L585.1 639.3L581.6 640.6L578.0 641.8L574.3 642.9L570.6 644.0L566.7 645.0L562.8 646.0L558.8 646.9L554.7 647.7L550.6 648.5L546.4 649.2L542.2 649.8L537.9 650.3L533.6 650.8L529.3 651.3L524.9 651.6L520.5 651.9L516.1 652.1L511.7 652.3L507.2 652.3L502.8 652.3L498.3 652.3L493.9 652.1L489.5 651.9L485.1 651.6L480.7 651.3L476.4 650.8L472.1 650.3L467.8 649.8L463.6 649.2L459.4 648.5L455.3 647.7L451.2 646.9L447.2 646.0L443.3 645.0L439.4 644.0L435.7 642.9L432.0 641.8L428.4 640.6L424.9 639.3L421.5 638.0L418.2 636.7L415.0 635.2L411.9 633.8L408.9 632.3L406.1 630.7L403.4 629.1L400.7 627.5L398.3 625.8L395.9 624.0L393.7 622.3L391.6 620.5L389.6 618.7L387.8 616.8L386.2 614.9L384.7 613.0L383.3 611.1L382.1 609.1L381.0 607.1L380.1 605.1L379.3 603.1L378.7 601.1L378.2 599.1L377.9 597.1L377.7 595.0L377.7 593.0L377.9 590.9L378.2 588.9L378.7 586.9L379.3 584.9L380.1 582.9L381.0 580.9L382.1 578.9L383.3 576.9L384.7 575.0L386.2 573.1L387.8 571.2L389.6 569.3L391.6 567.5L393.7 565.7L395.9 564.0L398.3 562.2L400.7 560.5L403.4 558.9L406.1 557.3L408.9 555.7L411.9 554.2L415.0 552.8L418.2 551.3L421.5 550.0L424.9 548.7L428.4 547.4L432.0 546.2L435.7 545.1L439.4 544.0L443.3 543.0L447.2 542.0L451.2 541.1L455.3 540.3L459.4 539.5L463.6 538.8L467.8 538.2L472.1 537.7L476.4 537.2L480.7 536.7L485.1 536.4L489.5 536.1L493.9 535.9L498.3 535.7L502.8 535.7L507.2 535.7L511.7 535.7L516.1 535.9L520.5 536.1L524.9 536.4L529.3 536.7L533.6 537.2L537.9 537.7L542.2 538.2L546.4 538.8L550.6 539.5L554.7 540.3L558.8 541.1L562.8 542.0L566.7 543.0L570.6 544.0L574.3 545.1L578.0 546.2L581.6 547.4L585.1 548.7L588.5 550.0L591.8 551.3L595.0 552.8L598.1 554.2L601.1 555.7L603.9 557.3L606.6 558.9L609.3 560.5L611.7 562.2L614.1 564.0L616.3 565.7L618.4 567.5L620.4 569.3L622.2 571.2L623.8 573.1L625.3 575.0L626.7 576.9L627.9 578.9L629.0 580.9L629.9 582.9L630.7 584.9L631.3 586.9L631.8 588.9L632.1 590.9L632.3 593.0L632.3 595.0L632.1 597.1L631.8 599.1L631.3 601.1L630.7 603.1L629.9 605.1L629.0 607.1L627.9 609.1L626.7 611.1L625.3 613.0L623.8 614.9L622.2 616.8L620.4 618.7L618.4 620.5L616.3 622.3L614.1 624.0L611.7 625.8L609.3 627.5L606.6 629.1L603.9 630.7L601.1 632.3L598.1 633.8L595.0 635.2" fill="none" stroke="#2a3a53" stroke-width="1"/>
<path d="M685.0 676.5L678.6 679.3L672.0 682.1L665.2 684.7L658.2 687.2L651.0 689.6L643.6 691.8L636.1 694.0L628.4 696.0L620.6 698.0L612.6 699.7L604.5 701.4L596.2 702.9L587.9 704.3L579.4 705.6L570.9 706.7L562.3 707.7L553.6 708.5L544.8 709.2L536.0 709.8L527.2 710.2L518.3 710.5L509.4 710.7L500.6 710.7L491.7 710.5L482.8 710.2L474.0 709.8L465.2 709.2L456.4 708.5L447.7 707.7L439.1 706.7L430.6 705.6L422.1 704.3L413.8 702.9L405.5 701.4L397.4 699.7L389.4 698.0L381.6 696.0L373.9 694.0L366.4 691.8L359.0 689.6L351.8 687.2L344.8 684.7L338.0 682.1L331.4 679.3L325.0 676.5L318.8 673.6L312.9 670.5L307.2 667.4L301.7 664.2L296.5 660.9L291.5 657.5L286.8 654.1L282.4 650.6L278.2 647.0L274.3 643.3L270.7 639.6L267.3 635.8L264.3 632.0L261.6 628.1L259.1 624.2L257.0 620.2L255.1 616.3L253.6 612.3L252.3 608.2L251.4 604.2L250.8 600.1L250.5 596.0L250.5 592.0L250.8 587.9L251.4 583.8L252.3 579.8L253.6 575.7L255.1 571.7L257.0 567.8L259.1 563.8L261.6 559.9L264.3 556.0L267.3 552.2L270.7 548.4L274.3 544.7L278.2 541.0L282.4 537.4L286.8 533.9L291.5 530.5L296.5 527.1L301.7 523.8L307.2 520.6L312.9 517.5L318.8 514.4L325.0 511.5L331.4 508.7L338.0 505.9L344.8 503.3L351.8 500.8L359.0 498.4L366.4 496.2L373.9 494.0L381.6 492.0L389.4 490.0L397.4 488.3L405.5 486.6L413.8 485.1L422.1 483.7L430.6 482.4L439.1 481.3L447.7 480.3L456.4 479.5L465.2 478.8L474.0 478.2L482.8 477.8L491.7 477.5L500.6 477.3L509.4 477.3L518.3 477.5L527.2 477.8L536.0 478.2L544.8 478.8L553.6 479.5L562.3 480.3L570.9 481.3L579.4 482.4L587.9 483.7L596.2 485.1L604.5 486.6L612.6 488.3L620.6 490.0L628.4 492.0L636.1 494.0L643.6 496.2L651.0 498.4L658.2 500.8L665.2 503.3L672.0 505.9L678.6 508.7L685.0 511.5L691.2 514.4L697.1 517.5L702.8 520.6L708.3 523.8L713.5 527.1L718.5 530.5L723.2 533.9L727.6 537.4L731.8 541.0L735.7 544.7L739.3 548.4L742.7 552.2L745.7 556.0L748.4 559.9L750.9 563.8L753.0 567.8L754.9 571.7L756.4 575.7L757.7 579.8L758.6 583.8L759.2 587.9L759.5 592.0L759.5 596.0L759.2 600.1L758.6 604.2L757.7 608.2L756.4 612.3L754.9 616.3L753.0 620.2L750.9 624.2L748.4 628.1L745.7 632.0L742.7 635.8L739.3 639.6L735.7 643.3L731.8 647.0L727.6 650.6L723.2 654.1L718.5 657.5L713.5 660.9L708.3 664.2L702.8 667.4L697.1 670.5L691.2 673.6L685.0 676.5" fill="none" stroke="#2a3a53" stroke-width="1"/>
<path d="M775.0 717.8L765.4 722.0L755.5 726.1L745.3 730.0L734.8 733.8L724.0 737.4L713.0 740.8L701.7 744.0L690.1 747.1L678.4 749.9L666.4 752.6L654.2 755.1L641.8 757.4L629.3 759.5L616.6 761.4L603.8 763.0L590.9 764.5L577.9 765.8L564.7 766.9L551.5 767.7L538.3 768.3L525.0 768.8L511.7 769.0L498.3 769.0L485.0 768.8L471.7 768.3L458.5 767.7L445.3 766.9L432.1 765.8L419.1 764.5L406.2 763.0L393.4 761.4L380.7 759.5L368.2 757.4L355.8 755.1L343.6 752.6L331.6 749.9L319.9 747.1L308.3 744.0L297.0 740.8L286.0 737.4L275.2 733.8L264.7 730.0L254.5 726.1L244.6 722.0L235.0 717.8L225.7 713.4L216.8 708.8L208.3 704.1L200.1 699.3L192.2 694.4L184.8 689.3L177.7 684.1L171.0 678.8L164.8 673.5L158.9 668.0L153.5 662.4L148.5 656.7L144.0 651.0L139.8 645.2L136.2 639.3L132.9 633.4L130.2 627.4L127.9 621.4L126.0 615.3L124.6 609.3L123.7 603.2L123.2 597.1L123.2 590.9L123.7 584.8L124.6 578.7L126.0 572.7L127.9 566.6L130.2 560.6L132.9 554.6L136.2 548.7L139.8 542.8L144.0 537.0L148.5 531.3L153.5 525.6L158.9 520.0L164.8 514.5L171.0 509.2L177.7 503.9L184.8 498.7L192.2 493.6L200.1 488.7L208.3 483.9L216.8 479.2L225.7 474.6L235.0 470.2L244.6 466.0L254.5 461.9L264.7 458.0L275.2 454.2L286.0 450.6L297.0 447.2L308.3 444.0L319.9 440.9L331.6 438.1L343.6 435.4L355.8 432.9L368.2 430.6L380.7 428.5L393.4 426.6L406.2 425.0L419.1 423.5L432.1 422.2L445.3 421.1L458.5 420.3L471.7 419.7L485.0 419.2L498.3 419.0L511.7 419.0L525.0 419.2L538.3 419.7L551.5 420.3L564.7 421.1L577.9 422.2L590.9 423.5L603.8 425.0L616.6 426.6L629.3 428.5L641.8 430.6L654.2 432.9L666.4 435.4L678.4 438.1L690.1 440.9L701.7 444.0L713.0 447.2L724.0 450.6L734.8 454.2L745.3 458.0L755.5 461.9L765.4 466.0L775.0 470.2L784.3 474.6L793.2 479.2L801.7 483.9L809.9 488.7L817.8 493.6L825.2 498.7L832.3 503.9L839.0 509.2L845.2 514.5L851.1 520.0L856.5 525.6L861.5 531.3L866.0 537.0L870.2 542.8L873.8 548.7L877.1 554.6L879.8 560.6L882.1 566.6L884.0 572.7L885.4 578.7L886.3 584.8L886.8 590.9L886.8 597.1L886.3 603.2L885.4 609.3L884.0 615.3L882.1 621.4L879.8 627.4L877.1 633.4L873.8 639.3L870.2 645.2L866.0 651.0L861.5 656.7L856.5 662.4L851.1 668.0L845.2 673.5L839.0 678.8L832.3 684.1L825.2 689.3L817.8 694.4L809.9 699.3L801.7 704.1L793.2 708.8L784.3 713.4L775.0 717.8" fill="none" stroke="#2a3a53" stroke-width="1"/>
<path d="M505.0 594.0L865.0 759.0" stroke="#24344d" stroke-width="0.9"/>
<path d="M505.0 594.0L720.2 805.5" stroke="#24344d" stroke-width="0.9"/>
<path d="M505.0 594.0L549.4 826.5" stroke="#24344d" stroke-width="0.9"/>
<path d="M505.0 594.0L373.2 819.4" stroke="#24344d" stroke-width="0.9"/>
<path d="M505.0 594.0L213.0 785.1" stroke="#24344d" stroke-width="0.9"/>
<path d="M505.0 594.0L88.0 727.8" stroke="#24344d" stroke-width="0.9"/>
<path d="M505.0 594.0L13.2 654.4" stroke="#24344d" stroke-width="0.9"/>
<path d="M505.0 594.0L-2.2 573.7" stroke="#24344d" stroke-width="0.9"/>
<path d="M505.0 594.0L43.6 495.4" stroke="#24344d" stroke-width="0.9"/>
<path d="M505.0 594.0L145.0 429.0" stroke="#24344d" stroke-width="0.9"/>
<path d="M505.0 594.0L289.8 382.5" stroke="#24344d" stroke-width="0.9"/>
<path d="M505.0 594.0L460.6 361.5" stroke="#24344d" stroke-width="0.9"/>
<path d="M505.0 594.0L636.8 368.6" stroke="#24344d" stroke-width="0.9"/>
<path d="M505.0 594.0L797.0 402.9" stroke="#24344d" stroke-width="0.9"/>
<path d="M505.0 594.0L922.0 460.2" stroke="#24344d" stroke-width="0.9"/>
<path d="M505.0 594.0L996.8 533.6" stroke="#24344d" stroke-width="0.9"/>
<path d="M505.0 594.0L1012.2 614.3" stroke="#24344d" stroke-width="0.9"/>
<path d="M505.0 594.0L966.4 692.6" stroke="#24344d" stroke-width="0.9"/>
<path d="M145.0 429.0L164.3 405.3L184.6 382.2L205.7 359.6L227.7 337.7L250.4 316.4L273.9 296.0L297.9 276.3L322.5 257.5L347.7 239.7L373.2 222.8L399.1 206.9L425.4 192.1L451.8 178.4L478.4 165.9L505.0 154.5L531.6 144.3L558.2 135.3L584.6 127.6L610.9 121.2L636.8 116.1L662.3 112.3L687.5 109.8L712.1 108.6L736.1 108.8L759.6 110.3L782.3 113.1L804.3 117.2L825.4 122.7L845.7 129.4L865.0 137.4L883.3 146.7L900.7 157.1L916.9 168.8L932.0 181.7L945.9 195.7L958.6 210.7L970.1 226.9L980.3 244.0L989.2 262.1L996.8 281.1L1003.0 300.9L1007.8 321.6L1011.3 343.0L1013.4 365.1L1014.1 387.8L1013.4 411.1L1011.3 434.9L1007.8 459.1L1003.0 483.7L996.8 508.6L989.2 533.7L980.3 559.0L970.1 584.4L958.6 609.8L945.9 635.2L932.0 660.5L916.9 685.5L900.7 710.4L883.3 734.9L865.0 759.0" fill="none" stroke="#f59e0b" stroke-width="2" opacity="0.42" stroke-dasharray="8 7"/>
<path d="M532.3 502.1L537.0 495.0L542.0 488.1L547.2 481.4L552.7 475.0L558.4 468.8L564.3 462.9L570.3 457.4L576.5 452.2L582.8 447.4L589.1 443.1L595.5 439.1L601.9 435.7L608.3 432.6L614.6 430.1L620.8 428.1L627.0 426.5L632.9 425.5L638.7 425.0L644.3 425.0L649.7 425.6L654.8 426.6L659.6 428.2L664.1 430.3L668.3 432.9L672.2 435.9L675.7 439.4L678.8 443.4L681.5 447.8L683.8 452.6L685.6 457.8L687.1 463.3L688.1 469.2L688.6 475.4L688.7 481.9L688.4 488.6L687.6 495.5L686.4 502.6L684.8 509.8L682.7 517.2L680.2 524.6L677.3 532.1L674.0 539.5L670.3 546.9L666.3 554.3L661.9 561.5" fill="none" stroke="#38bdf8" stroke-width="2.4" opacity="0.78"/>
<path d="M597.1 531.8L514.2 502.9L37.5 336.7" stroke="#38bdf8" stroke-width="1.7" opacity="0.78" fill="none"/>
<circle cx="514.2" cy="502.9" r="3.8" fill="#38bdf8" stroke="#e0f2fe" opacity="0.9"/>
<circle cx="37.5" cy="336.7" r="4.2" fill="#38bdf8" stroke="#e0f2fe"/>
<line x1="334.0" y1="259.4" x2="268.8" y2="276.4" stroke="#ef4444" stroke-width="1.5" stroke-dasharray="5 5"/>
<text class="tiny" x="44.5" y="329.7">off-map ray</text>
<circle cx="334.0" cy="259.4" r="6.2" fill="#ffd34d" stroke="#fff7ed" stroke-width="1.2"/>
<text class="tiny" x="344.0" y="249.4">Sun • miss 3.45R</text>
<path d="M597.1 531.8L621.2 681.3" stroke="#ef4444" stroke-width="1.6" stroke-dasharray="5 5" opacity="0.72"/>
<circle cx="395.9" cy="503.5" r="6.2" fill="#e5e7eb" stroke="#fff7ed" stroke-width="1.2"/>
<text class="tiny" x="407.9" y="517.5">Moon • below horizon</text>
<path d="M597.1 531.8L437.9 540.2" stroke="#ef4444" stroke-width="1.6" stroke-dasharray="5 5" opacity="0.72"/>
<circle cx="272.7" cy="299.2" r="6.2" fill="#ff6b5f" stroke="#fff7ed" stroke-width="1.2"/>
<text class="tiny" x="186.7" y="289.2">Mars • below horizon</text>
<path d="M597.1 531.8L582.6 451.3L539.4 211.2" stroke="#38bdf8" stroke-width="1.7" opacity="0.78" fill="none"/>
<circle cx="582.6" cy="451.3" r="3.8" fill="#38bdf8" stroke="#e0f2fe" opacity="0.9"/>
<circle cx="539.4" cy="211.2" r="4.5" fill="#38bdf8" stroke="#e0f2fe"/>
<line x1="539.4" y1="211.2" x2="558.7" y2="234.6" stroke="#ef4444" stroke-width="1.5" stroke-dasharray="5 5"/>
<circle cx="558.7" cy="234.6" r="6.2" fill="#ffb86b" stroke="#fff7ed" stroke-width="1.2"/>
<text class="tiny" x="468.7" y="248.6">Jupiter • miss 0.11R</text>
<path d="M597.1 531.8L448.4 568.1" stroke="#ef4444" stroke-width="1.6" stroke-dasharray="5 5" opacity="0.72"/>
<circle cx="248.9" cy="322.3" r="6.2" fill="#e7c77d" stroke="#fff7ed" stroke-width="1.2"/>
<text class="tiny" x="258.9" y="350.3">Saturn • below horizon</text>
<path d="M597.1 531.8L608.2 454.6L646.3 188.5" stroke="#38bdf8" stroke-width="1.7" opacity="0.78" fill="none"/>
<circle cx="608.2" cy="454.6" r="3.8" fill="#38bdf8" stroke="#e0f2fe" opacity="0.9"/>
<circle cx="646.3" cy="188.5" r="4.5" fill="#38bdf8" stroke="#e0f2fe"/>
<line x1="646.3" y1="188.5" x2="574.2" y2="262.9" stroke="#ef4444" stroke-width="1.5" stroke-dasharray="5 5"/>
<circle cx="574.2" cy="262.9" r="6.2" fill="#9ed0ff" stroke="#fff7ed" stroke-width="1.2"/>
<text class="tiny" x="486.2" y="292.9">Sirius • miss 0.35R</text>
<path d="M597.1 531.8L552.7 522.2L372.4 483.1" stroke="#38bdf8" stroke-width="1.7" opacity="0.78" fill="none"/>
<circle cx="552.7" cy="522.2" r="3.8" fill="#38bdf8" stroke="#e0f2fe" opacity="0.9"/>
<circle cx="372.4" cy="483.1" r="4.5" fill="#38bdf8" stroke="#e0f2fe"/>
<line x1="372.4" y1="483.1" x2="503.8" y2="397.0" stroke="#ef4444" stroke-width="1.5" stroke-dasharray="5 5"/>
<circle cx="503.8" cy="397.0" r="6.2" fill="#b7f7ff" stroke="#fff7ed" stroke-width="1.2"/>
<text class="tiny" x="513.8" y="387.0">Polaris • miss 0.45R</text>
<path d="M597.1 531.8L653.7 553.4L989.6 681.6" stroke="#38bdf8" stroke-width="1.7" opacity="0.78" fill="none"/>
<circle cx="653.7" cy="553.4" r="3.8" fill="#38bdf8" stroke="#e0f2fe" opacity="0.9"/>
<circle cx="989.6" cy="681.6" r="4.2" fill="#38bdf8" stroke="#e0f2fe"/>
<line x1="667.5" y1="451.5" x2="738.4" y2="502.1" stroke="#ef4444" stroke-width="1.5" stroke-dasharray="5 5"/>
<text class="tiny" x="996.6" y="674.6">off-map ray</text>
<circle cx="667.5" cy="451.5" r="6.2" fill="#ffb15d" stroke="#fff7ed" stroke-width="1.2"/>
<text class="tiny" x="679.5" y="465.5">Arcturus • miss 2.76R</text>
<path d="M597.1 531.8L552.2 643.2" stroke="#ef4444" stroke-width="1.6" stroke-dasharray="5 5" opacity="0.72"/>
<circle cx="477.0" cy="462.7" r="6.2" fill="#d6e8ff" stroke="#fff7ed" stroke-width="1.2"/>
<text class="tiny" x="391.0" y="452.7">Vega • below horizon</text>
<path d="M597.1 531.8L572.8 451.3L512.0 250.4" stroke="#38bdf8" stroke-width="1.7" opacity="0.78" fill="none"/>
<circle cx="572.8" cy="451.3" r="3.8" fill="#38bdf8" stroke="#e0f2fe" opacity="0.9"/>
<circle cx="512.0" cy="250.4" r="4.5" fill="#38bdf8" stroke="#e0f2fe"/>
<line x1="512.0" y1="250.4" x2="508.4" y2="290.5" stroke="#ef4444" stroke-width="1.5" stroke-dasharray="5 5"/>
<circle cx="508.4" cy="290.5" r="6.2" fill="#ff8f55" stroke="#fff7ed" stroke-width="1.2"/>
<text class="tiny" x="418.4" y="304.5">Betelgeuse • miss 0.17R</text>
<circle cx="597.1" cy="531.8" r="7" fill="#22c55e" stroke="#bbf7d0" stroke-width="2.2"/>
<text class="label" x="607.1" y="535.8">observer</text>
</g>
<rect x="870" y="140" width="346" height="344" rx="14" fill="#0f172a" stroke="#334155" opacity="0.96"/>
<text class="label" x="894" y="170">Legend</text>
<circle cx="902" cy="198" r="5.5" fill="#fbbf24" stroke="#fff7ed"/><text class="small" x="920" y="202">whole-world vault marker</text>
<circle cx="902" cy="225" r="5" fill="#38bdf8" stroke="#e0f2fe"/><text class="small" x="920" y="229">optical ray at same z plane</text>
<line x1="894" y1="253" x2="924" y2="253" stroke="#38bdf8" stroke-width="2"/><text class="small" x="932" y="257">ray through observed optical position</text>
<line x1="894" y1="282" x2="924" y2="282" stroke="#ef4444" stroke-dasharray="5 5"/><text class="small" x="932" y="286">miss distance / below-horizon ray</text>
<text class="tiny" x="894" y="322">Large off-map misses are clipped to avoid misleading</text>
<text class="tiny" x="894" y="338">diagonal lines going nowhere; labels retain true miss.</text>
<text class="tiny" x="894" y="372">Sun: optical el 9.9 deg, miss 3.45R</text>
<text class="tiny" x="894" y="386">Moon: optical el -75.8 deg, below horizon</text>
<text class="tiny" x="894" y="400">Mars: optical el -13.9 deg, below horizon</text>
<text class="tiny" x="894" y="414">Jupiter: optical el 72.1 deg, miss 0.11R</text>
<text class="tiny" x="894" y="428">Saturn: optical el -25.2 deg, below horizon</text>
<text class="tiny" x="894" y="442">Sirius: optical el 37.3 deg, miss 0.35R</text>
<text class="tiny" x="894" y="456">Polaris: optical el 32.1 deg, miss 0.45R</text>
<text class="tiny" x="894" y="470">Arcturus: optical el 8.5 deg, miss 2.76R</text>
<text class="tiny" x="894" y="484">Vega: optical el -16.0 deg, below horizon</text>
<text class="tiny" x="894" y="498">Betelgeuse: optical el 50.4 deg, miss 0.17R</text>
</svg>