<svg xmlns="http://www.w3.org/2000/svg" width="1280" height="900" viewBox="0 0 1280 900" role="img">
<rect width="100%" height="100%" fill="#060b16"/>

<style>
  .title{font:700 25px system-ui,-apple-system,Segoe UI,sans-serif;fill:#f8fafc}
  .subtitle{font:500 13px system-ui,-apple-system,Segoe UI,sans-serif;fill:#cbd5e1}
  .label{font:650 12px system-ui,-apple-system,Segoe UI,sans-serif;fill:#f8fafc}
  .small{font:500 11px system-ui,-apple-system,Segoe UI,sans-serif;fill:#cbd5e1}
  .tiny{font:500 10px system-ui,-apple-system,Segoe UI,sans-serif;fill:#94a3b8}
</style>
<defs>
  <linearGradient id="panel" x1="0" y1="0" x2="0" y2="1"><stop offset="0" stop-color="#111827"/><stop offset="1" stop-color="#0f172a"/></linearGradient>
  <filter id="glow"><feGaussianBlur stdDeviation="2.6" result="blur"/><feMerge><feMergeNode in="blur"/><feMergeNode in="SourceGraphic"/></feMerge></filter>
</defs>

<text class="title" x="42" y="46">3D dome mismatch: optical sightlines do not hit the whole-world vault markers</text>
<text class="subtitle" x="42" y="70">Observer 32.0°, -100.8387° • 2026-05-07T00:00Z • FE-style disc/dome sketch • orange = whole-world vault, cyan = observer optical ray extrapolation</text>
<rect x="32" y="96" width="1216" height="742" rx="18" fill="url(#panel)" stroke="#263449"/>
<path d="M880.0 710.0L865.6 716.5L850.6 722.8L835.2 728.8L819.3 734.5L802.9 739.9L786.0 745.0L768.8 749.8L751.1 754.2L733.1 758.3L714.8 762.1L696.2 765.6L677.3 768.6L658.2 771.4L638.9 773.8L619.3 775.8L599.6 777.5L579.8 778.7L559.9 779.7L540.0 780.2L520.0 780.4L500.0 780.2L480.1 779.7L460.2 778.7L440.4 777.5L420.7 775.8L401.1 773.8L381.8 771.4L362.7 768.6L343.8 765.6L325.2 762.1L306.9 758.3L288.9 754.2L271.2 749.8L254.0 745.0L237.1 739.9L220.7 734.5L204.8 728.8L189.4 722.8L174.4 716.5L160.0 710.0L146.1 703.2L132.9 696.1L120.2 688.8L108.1 681.3L96.7 673.6L85.9 665.6L75.8 657.5L66.4 649.1L57.6 640.7L49.6 632.0L42.4 623.2L35.8 614.3L30.0 605.3L25.0 596.1L20.7 586.9L17.2 577.6L14.4 568.3L12.5 558.9L11.3 549.4L10.9 540.0L11.3 530.6L12.5 521.1L14.4 511.7L17.2 502.4L20.7 493.1L25.0 483.9L30.0 474.7L35.8 465.7L42.4 456.8L49.6 448.0L57.6 439.3L66.4 430.9L75.8 422.5L85.9 414.4L96.7 406.4L108.1 398.7L120.2 391.2L132.9 383.9L146.1 376.8L160.0 370.0L174.4 363.5L189.4 357.2L204.8 351.2L220.7 345.5L237.1 340.1L254.0 335.0L271.2 330.2L288.9 325.8L306.9 321.7L325.2 317.9L343.8 314.4L362.7 311.4L381.8 308.6L401.1 306.2L420.7 304.2L440.4 302.5L460.2 301.3L480.1 300.3L500.0 299.8L520.0 299.6L540.0 299.8L559.9 300.3L579.8 301.3L599.6 302.5L619.3 304.2L638.9 306.2L658.2 308.6L677.3 311.4L696.2 314.4L714.8 317.9L733.1 321.7L751.1 325.8L768.8 330.2L786.0 335.0L802.9 340.1L819.3 345.5L835.2 351.2L850.6 357.2L865.6 363.5L880.0 370.0L893.9 376.8L907.1 383.9L919.8 391.2L931.9 398.7L943.3 406.4L954.1 414.4L964.2 422.5L973.6 430.9L982.4 439.3L990.4 448.0L997.6 456.8L1004.2 465.7L1010.0 474.7L1015.0 483.9L1019.3 493.1L1022.8 502.4L1025.6 511.7L1027.5 521.1L1028.7 530.6L1029.1 540.0L1028.7 549.4L1027.5 558.9L1025.6 568.3L1022.8 577.6L1019.3 586.9L1015.0 596.1L1010.0 605.3L1004.2 614.3L997.6 623.2L990.4 632.0L982.4 640.7L973.6 649.1L964.2 657.5L954.1 665.6L943.3 673.6L931.9 681.3L919.8 688.8L907.1 696.1L893.9 703.2L880.0 710.0" fill="#10192b" stroke="#475569" stroke-width="2" opacity="0.92"/>
<path d="M610.0 582.5L606.4 584.1L602.7 585.7L598.8 587.2L594.8 588.6L590.7 590.0L586.5 591.2L582.2 592.4L577.8 593.6L573.3 594.6L568.7 595.5L564.1 596.4L559.3 597.2L554.5 597.8L549.7 598.4L544.8 598.9L539.9 599.4L535.0 599.7L530.0 599.9L525.0 600.1L520.0 600.1L515.0 600.1L510.0 599.9L505.0 599.7L500.1 599.4L495.2 598.9L490.3 598.4L485.5 597.8L480.7 597.2L475.9 596.4L471.3 595.5L466.7 594.6L462.2 593.6L457.8 592.4L453.5 591.2L449.3 590.0L445.2 588.6L441.2 587.2L437.3 585.7L433.6 584.1L430.0 582.5L426.5 580.8L423.2 579.0L420.0 577.2L417.0 575.3L414.2 573.4L411.5 571.4L408.9 569.4L406.6 567.3L404.4 565.2L402.4 563.0L400.6 560.8L399.0 558.6L397.5 556.3L396.2 554.0L395.2 551.7L394.3 549.4L393.6 547.1L393.1 544.7L392.8 542.4L392.7 540.0L392.8 537.6L393.1 535.3L393.6 532.9L394.3 530.6L395.2 528.3L396.2 526.0L397.5 523.7L399.0 521.4L400.6 519.2L402.4 517.0L404.4 514.8L406.6 512.7L408.9 510.6L411.5 508.6L414.2 506.6L417.0 504.7L420.0 502.8L423.2 501.0L426.5 499.2L430.0 497.5L433.6 495.9L437.3 494.3L441.2 492.8L445.2 491.4L449.3 490.0L453.5 488.8L457.8 487.6L462.2 486.4L466.7 485.4L471.3 484.5L475.9 483.6L480.7 482.8L485.5 482.2L490.3 481.6L495.2 481.1L500.1 480.6L505.0 480.3L510.0 480.1L515.0 479.9L520.0 479.9L525.0 479.9L530.0 480.1L535.0 480.3L539.9 480.6L544.8 481.1L549.7 481.6L554.5 482.2L559.3 482.8L564.1 483.6L568.7 484.5L573.3 485.4L577.8 486.4L582.2 487.6L586.5 488.8L590.7 490.0L594.8 491.4L598.8 492.8L602.7 494.3L606.4 495.9L610.0 497.5L613.5 499.2L616.8 501.0L620.0 502.8L623.0 504.7L625.8 506.6L628.5 508.6L631.1 510.6L633.4 512.7L635.6 514.8L637.6 517.0L639.4 519.2L641.0 521.4L642.5 523.7L643.8 526.0L644.8 528.3L645.7 530.6L646.4 532.9L646.9 535.3L647.2 537.6L647.3 540.0L647.2 542.4L646.9 544.7L646.4 547.1L645.7 549.4L644.8 551.7L643.8 554.0L642.5 556.3L641.0 558.6L639.4 560.8L637.6 563.0L635.6 565.2L633.4 567.3L631.1 569.4L628.5 571.4L625.8 573.4L623.0 575.3L620.0 577.2L616.8 579.0L613.5 580.8L610.0 582.5" fill="none" stroke="#243246" stroke-width="1"/>
<path d="M700.0 625.0L692.8 628.3L685.3 631.4L677.6 634.4L669.6 637.3L661.4 639.9L653.0 642.5L644.4 644.9L635.6 647.1L626.6 649.2L617.4 651.1L608.1 652.8L598.7 654.3L589.1 655.7L579.4 656.9L569.7 657.9L559.8 658.7L549.9 659.4L540.0 659.8L530.0 660.1L520.0 660.2L510.0 660.1L500.0 659.8L490.1 659.4L480.2 658.7L470.3 657.9L460.6 656.9L450.9 655.7L441.3 654.3L431.9 652.8L422.6 651.1L413.4 649.2L404.4 647.1L395.6 644.9L387.0 642.5L378.6 639.9L370.4 637.3L362.4 634.4L354.7 631.4L347.2 628.3L340.0 625.0L333.1 621.6L326.4 618.1L320.1 614.4L314.1 610.7L308.3 606.8L303.0 602.8L297.9 598.7L293.2 594.6L288.8 590.3L284.8 586.0L281.2 581.6L277.9 577.1L275.0 572.6L272.5 568.1L270.3 563.5L268.6 558.8L267.2 554.1L266.2 549.4L265.6 544.7L265.4 540.0L265.6 535.3L266.2 530.6L267.2 525.9L268.6 521.2L270.3 516.5L272.5 511.9L275.0 507.4L277.9 502.9L281.2 498.4L284.8 494.0L288.8 489.7L293.2 485.4L297.9 481.3L303.0 477.2L308.3 473.2L314.1 469.3L320.1 465.6L326.4 461.9L333.1 458.4L340.0 455.0L347.2 451.7L354.7 448.6L362.4 445.6L370.4 442.7L378.6 440.1L387.0 437.5L395.6 435.1L404.4 432.9L413.4 430.8L422.6 428.9L431.9 427.2L441.3 425.7L450.9 424.3L460.6 423.1L470.3 422.1L480.2 421.3L490.1 420.6L500.0 420.2L510.0 419.9L520.0 419.8L530.0 419.9L540.0 420.2L549.9 420.6L559.8 421.3L569.7 422.1L579.4 423.1L589.1 424.3L598.7 425.7L608.1 427.2L617.4 428.9L626.6 430.8L635.6 432.9L644.4 435.1L653.0 437.5L661.4 440.1L669.6 442.7L677.6 445.6L685.3 448.6L692.8 451.7L700.0 455.0L706.9 458.4L713.6 461.9L719.9 465.6L725.9 469.3L731.7 473.2L737.0 477.2L742.1 481.3L746.8 485.4L751.2 489.7L755.2 494.0L758.8 498.4L762.1 502.9L765.0 507.4L767.5 511.9L769.7 516.5L771.4 521.2L772.8 525.9L773.8 530.6L774.4 535.3L774.6 540.0L774.4 544.7L773.8 549.4L772.8 554.1L771.4 558.8L769.7 563.5L767.5 568.1L765.0 572.6L762.1 577.1L758.8 581.6L755.2 586.0L751.2 590.3L746.8 594.6L742.1 598.7L737.0 602.8L731.7 606.8L725.9 610.7L719.9 614.4L713.6 618.1L706.9 621.6L700.0 625.0" fill="none" stroke="#243246" stroke-width="1"/>
<path d="M790.0 667.5L779.2 672.4L768.0 677.1L756.4 681.6L744.4 685.9L732.1 689.9L719.5 693.7L706.6 697.3L693.4 700.7L679.9 703.7L666.1 706.6L652.2 709.2L638.0 711.5L623.6 713.5L609.1 715.3L594.5 716.8L579.7 718.1L564.9 719.1L550.0 719.8L535.0 720.2L520.0 720.3L505.0 720.2L490.0 719.8L475.1 719.1L460.3 718.1L445.5 716.8L430.9 715.3L416.4 713.5L402.0 711.5L387.8 709.2L373.9 706.6L360.1 703.7L346.6 700.7L333.4 697.3L320.5 693.7L307.9 689.9L295.6 685.9L283.6 681.6L272.0 677.1L260.8 672.4L250.0 667.5L239.6 662.4L229.6 657.1L220.1 651.6L211.1 646.0L202.5 640.2L194.4 634.2L186.8 628.1L179.8 621.9L173.2 615.5L167.2 609.0L161.8 602.4L156.9 595.7L152.5 588.9L148.7 582.1L145.5 575.2L142.9 568.2L140.8 561.2L139.3 554.1L138.5 547.1L138.2 540.0L138.5 532.9L139.3 525.9L140.8 518.8L142.9 511.8L145.5 504.8L148.7 497.9L152.5 491.1L156.9 484.3L161.8 477.6L167.2 471.0L173.2 464.5L179.8 458.1L186.8 451.9L194.4 445.8L202.5 439.8L211.1 434.0L220.1 428.4L229.6 422.9L239.6 417.6L250.0 412.5L260.8 407.6L272.0 402.9L283.6 398.4L295.6 394.1L307.9 390.1L320.5 386.3L333.4 382.7L346.6 379.3L360.1 376.3L373.9 373.4L387.8 370.8L402.0 368.5L416.4 366.5L430.9 364.7L445.5 363.2L460.3 361.9L475.1 360.9L490.0 360.2L505.0 359.8L520.0 359.7L535.0 359.8L550.0 360.2L564.9 360.9L579.7 361.9L594.5 363.2L609.1 364.7L623.6 366.5L638.0 368.5L652.2 370.8L666.1 373.4L679.9 376.3L693.4 379.3L706.6 382.7L719.5 386.3L732.1 390.1L744.4 394.1L756.4 398.4L768.0 402.9L779.2 407.6L790.0 412.5L800.4 417.6L810.4 422.9L819.9 428.4L828.9 434.0L837.5 439.8L845.6 445.8L853.2 451.9L860.2 458.1L866.8 464.5L872.8 471.0L878.2 477.6L883.1 484.3L887.5 491.1L891.3 497.9L894.5 504.8L897.1 511.8L899.2 518.8L900.7 525.9L901.5 532.9L901.8 540.0L901.5 547.1L900.7 554.1L899.2 561.2L897.1 568.2L894.5 575.2L891.3 582.1L887.5 588.9L883.1 595.7L878.2 602.4L872.8 609.0L866.8 615.5L860.2 621.9L853.2 628.1L845.6 634.2L837.5 640.2L828.9 646.0L819.9 651.6L810.4 657.1L800.4 662.4L790.0 667.5" fill="none" stroke="#243246" stroke-width="1"/>
<path d="M520.0 540.0L880.0 710.0" stroke="#243246" stroke-width="1"/>
<path d="M520.0 540.0L651.8 772.2" stroke="#243246" stroke-width="1"/>
<path d="M520.0 540.0L388.2 772.2" stroke="#243246" stroke-width="1"/>
<path d="M520.0 540.0L160.0 710.0" stroke="#243246" stroke-width="1"/>
<path d="M520.0 540.0L28.2 602.2" stroke="#243246" stroke-width="1"/>
<path d="M520.0 540.0L28.2 477.8" stroke="#243246" stroke-width="1"/>
<path d="M520.0 540.0L160.0 370.0" stroke="#243246" stroke-width="1"/>
<path d="M520.0 540.0L388.2 307.8" stroke="#243246" stroke-width="1"/>
<path d="M520.0 540.0L651.8 307.8" stroke="#243246" stroke-width="1"/>
<path d="M520.0 540.0L880.0 370.0" stroke="#243246" stroke-width="1"/>
<path d="M520.0 540.0L1011.8 477.8" stroke="#243246" stroke-width="1"/>
<path d="M520.0 540.0L1011.8 602.2" stroke="#243246" stroke-width="1"/>
<path d="M160.0 89.2L179.3 80.9L199.6 73.9L220.7 68.2L242.7 63.7L265.4 60.6L288.9 58.7L312.9 58.2L337.5 59.0L362.7 61.2L388.2 64.6L414.1 69.3L440.4 75.4L466.8 82.7L493.4 91.2L520.0 101.0L546.6 112.0L573.2 124.2L599.6 137.5L625.9 151.9L651.8 167.4L677.3 183.9L702.5 201.3L727.1 219.7L751.1 239.0L774.6 259.1L797.3 280.0L819.3 301.6L840.4 323.8L860.7 346.6L880.0 370.0L898.3 364.4L915.7 359.3L931.9 354.8L947.0 350.7L960.9 347.1L973.6 344.1L985.1 341.6L995.3 339.6L1004.2 338.2L1011.8 337.4L1018.0 337.1L1022.8 337.3L1026.3 338.2L1028.4 339.5L1029.1 341.4L1028.4 343.9L1026.3 346.9L1022.8 350.4L1018.0 354.5L1011.8 359.0L1004.2 364.1L995.3 369.6L985.1 375.6L973.6 382.1L960.9 389.0L947.0 396.3L931.9 404.0L915.7 412.0L898.3 420.5L880.0 429.2" fill="none" stroke="#f59e0b" stroke-width="2" opacity="0.42" stroke-dasharray="8 7"/>
<path d="M547.3 375.1L552.0 373.2L557.0 371.8L562.2 370.9L567.7 370.6L573.4 370.7L579.3 371.4L585.3 372.5L591.5 374.2L597.8 376.4L604.1 379.0L610.5 382.1L616.9 385.7L623.3 389.7L629.6 394.2L635.8 399.0L642.0 404.2L647.9 409.8L653.7 415.6L659.3 421.8L664.7 428.3L669.8 434.9L674.6 441.8L679.1 443.9L683.3 441.3L687.2 438.9L690.7 436.6L693.8 434.6L696.5 432.7L698.8 431.0L700.6 429.6L702.1 428.4L703.1 427.4L703.6 426.7L703.7 426.2L703.4 425.9L702.6 425.9L701.4 426.1L699.8 426.6L697.7 427.3L695.2 428.2L692.3 429.4L689.0 430.8L685.3 432.4L681.3 434.3L676.9 436.3" fill="none" stroke="#38bdf8" stroke-width="2" opacity="0.75"/>
<circle cx="612.1" cy="475.9" r="7" fill="#22c55e" stroke="#bbf7d0" stroke-width="2" filter="url(#glow)"/>
<text class="label" x="622.1" y="479.9">observer</text>
<path d="M612.1 475.9L-1764.7 -251.7" stroke="#38bdf8" stroke-width="1.7" opacity="0.75"/>
<line x1="-1764.7" y1="-251.7" x2="342.9" y2="217.3" stroke="#ef4444" stroke-width="1.4" stroke-dasharray="5 5" opacity="0.9"/>
<circle cx="-1764.7" cy="-251.7" r="4.5" fill="#38bdf8" stroke="#e0f2fe"/>
<circle cx="342.9" cy="217.3" r="6" fill="#ffd34d" stroke="#fff7ed" stroke-width="1.2" filter="url(#glow)"/>
<text class="tiny" x="351.9" y="210.3">Sun (miss 4.58R)</text>
<path d="M612.1 475.9L669.8 607.9" stroke="#ef4444" stroke-width="1.5" opacity="0.65" stroke-dasharray="4 4"/>
<circle cx="669.8" cy="607.9" r="3.5" fill="#ef4444"/>
<circle cx="493.6" cy="475.1" r="6" fill="#e5e7eb" stroke="#fff7ed" stroke-width="1.2" filter="url(#glow)"/>
<text class="tiny" x="502.6" y="468.1">Moon (below horizon)</text>
<path d="M612.1 475.9L462.8 487.7" stroke="#ef4444" stroke-width="1.5" opacity="0.65" stroke-dasharray="4 4"/>
<circle cx="462.8" cy="487.7" r="3.5" fill="#ef4444"/>
<circle cx="284.7" cy="258.8" r="6" fill="#ff6b5f" stroke="#fff7ed" stroke-width="1.2" filter="url(#glow)"/>
<text class="tiny" x="293.7" y="251.8">Mars (below horizon)</text>
<path d="M612.1 475.9L545.3 162.3" stroke="#38bdf8" stroke-width="1.7" opacity="0.75"/>
<line x1="545.3" y1="162.3" x2="568.3" y2="187.8" stroke="#ef4444" stroke-width="1.4" stroke-dasharray="5 5" opacity="0.9"/>
<circle cx="545.3" cy="162.3" r="4.5" fill="#38bdf8" stroke="#e0f2fe"/>
<circle cx="568.3" cy="187.8" r="6" fill="#ffb86b" stroke="#fff7ed" stroke-width="1.2" filter="url(#glow)"/>
<text class="tiny" x="577.3" y="180.8">Jupiter (miss 0.12R)</text>
<path d="M612.1 475.9L472.9 511.4" stroke="#ef4444" stroke-width="1.5" opacity="0.65" stroke-dasharray="4 4"/>
<circle cx="472.9" cy="511.4" r="3.5" fill="#ef4444"/>
<circle cx="263.3" cy="281.4" r="6" fill="#e7c77d" stroke="#fff7ed" stroke-width="1.2" filter="url(#glow)"/>
<text class="tiny" x="272.3" y="274.4">Saturn (below horizon)</text>
<path d="M612.1 475.9L652.7 131.6" stroke="#38bdf8" stroke-width="1.7" opacity="0.75"/>
<line x1="652.7" y1="131.6" x2="581.4" y2="211.3" stroke="#ef4444" stroke-width="1.4" stroke-dasharray="5 5" opacity="0.9"/>
<circle cx="652.7" cy="131.6" r="4.5" fill="#38bdf8" stroke="#e0f2fe"/>
<circle cx="581.4" cy="211.3" r="6" fill="#9ed0ff" stroke="#fff7ed" stroke-width="1.2" filter="url(#glow)"/>
<text class="tiny" x="590.4" y="204.3">Sirius (miss 0.36R)</text>
<path d="M612.1 475.9L385.7 439.3" stroke="#38bdf8" stroke-width="1.7" opacity="0.75"/>
<line x1="385.7" y1="439.3" x2="518.4" y2="350.2" stroke="#ef4444" stroke-width="1.4" stroke-dasharray="5 5" opacity="0.9"/>
<circle cx="385.7" cy="439.3" r="4.5" fill="#38bdf8" stroke="#e0f2fe"/>
<circle cx="518.4" cy="350.2" r="6" fill="#b7f7ff" stroke="#fff7ed" stroke-width="1.2" filter="url(#glow)"/>
<text class="tiny" x="527.4" y="343.2">Polaris (miss 0.45R)</text>
<path d="M612.1 475.9L1492.2 791.8" stroke="#38bdf8" stroke-width="1.7" opacity="0.75"/>
<line x1="1492.2" y1="791.8" x2="685.9" y2="403.8" stroke="#ef4444" stroke-width="1.4" stroke-dasharray="5 5" opacity="0.9"/>
<circle cx="1492.2" cy="791.8" r="4.5" fill="#38bdf8" stroke="#e0f2fe"/>
<circle cx="685.9" cy="403.8" r="6" fill="#ffb15d" stroke="#fff7ed" stroke-width="1.2" filter="url(#glow)"/>
<text class="tiny" x="694.9" y="396.8">Arcturus (miss 2.26R)</text>
<path d="M612.1 475.9L573.3 581.2" stroke="#ef4444" stroke-width="1.5" opacity="0.65" stroke-dasharray="4 4"/>
<circle cx="573.3" cy="581.2" r="3.5" fill="#ef4444"/>
<circle cx="496.4" cy="418.3" r="6" fill="#d6e8ff" stroke="#fff7ed" stroke-width="1.2" filter="url(#glow)"/>
<text class="tiny" x="505.4" y="411.3">Vega (below horizon)</text>
<path d="M612.1 475.9L516.1 196.3" stroke="#38bdf8" stroke-width="1.7" opacity="0.75"/>
<line x1="516.1" y1="196.3" x2="515.7" y2="240.6" stroke="#ef4444" stroke-width="1.4" stroke-dasharray="5 5" opacity="0.9"/>
<circle cx="516.1" cy="196.3" r="4.5" fill="#38bdf8" stroke="#e0f2fe"/>
<circle cx="515.7" cy="240.6" r="6" fill="#ff8f55" stroke="#fff7ed" stroke-width="1.2" filter="url(#glow)"/>
<text class="tiny" x="524.7" y="233.6">Betelgeuse (miss 0.18R)</text>
<rect x="878" y="112" width="350" height="286" rx="14" fill="#0f172a" stroke="#334155" opacity="0.94"/>
<text class="label" x="902" y="142">Legend</text>
<circle cx="910" cy="168" r="5" fill="#fbbf24" stroke="#fff7ed"/><text class="small" x="926" y="172">whole-world dome marker</text>
<circle cx="910" cy="194" r="5" fill="#38bdf8" stroke="#e0f2fe"/><text class="small" x="926" y="198">where observed optical ray reaches same z</text>
<line x1="902" y1="222" x2="930" y2="222" stroke="#ef4444" stroke-dasharray="5 5"/><text class="small" x="938" y="226">gap / inaccuracy on the vault</text>
<line x1="902" y1="250" x2="930" y2="250" stroke="#ef4444" stroke-dasharray="4 4"/><text class="small" x="938" y="254">downward optical ray: below horizon</text>
<text class="tiny" x="902" y="286">R = flat-earth disc radius. Red gap is not an app-validated</text>
<text class="tiny" x="902" y="302">optical law; it is the straight FE geometry mismatch.</text>
<text class="tiny" x="902" y="326">Shown: Sun, Moon, Mars, Jupiter, Saturn + 5 stars.</text>
<text class="tiny" x="902" y="336">Sun: optical el 7.7°, 4.58R</text>
<text class="tiny" x="902" y="351">Moon: optical el -64.0°, below</text>
<text class="tiny" x="902" y="366">Mars: optical el -15.9°, below</text>
<text class="tiny" x="902" y="381">Jupiter: optical el 70.8°, 0.12R</text>
<text class="tiny" x="902" y="396">Saturn: optical el -26.6°, below</text>
<text class="tiny" x="902" y="411">Sirius: optical el 36.7°, 0.36R</text>
<text class="tiny" x="902" y="426">Polaris: optical el 32.0°, 0.45R</text>
<text class="tiny" x="902" y="441">Arcturus: optical el 10.1°, 2.26R</text>
<text class="tiny" x="902" y="456">Vega: optical el -15.6°, below</text>
<text class="tiny" x="902" y="471">Betelgeuse: optical el 49.1°, 0.18R</text>
</svg>