<svg xmlns="http://www.w3.org/2000/svg" width="1000" height="820" viewBox="0 0 1000 820" role="img"><rect width="100%" height="100%" fill="#0b1020"/>
<style>
.title{font:700 24px system-ui,-apple-system,Segoe UI,sans-serif;fill:#f8fafc}.subtitle{font:500 13px system-ui,-apple-system,Segoe UI,sans-serif;fill:#cbd5e1}.label{font:600 13px system-ui,-apple-system,Segoe UI,sans-serif;fill:#e5e7eb}.small{font:500 11px system-ui,-apple-system,Segoe UI,sans-serif;fill:#cbd5e1}.tiny{font:500 10px system-ui,-apple-system,Segoe UI,sans-serif;fill:#94a3b8}.arrow{stroke:#94a3b8;stroke-width:2;fill:none;marker-end:url(#arrow)}.arrowBlue{stroke:#60a5fa;stroke-width:2.5;fill:none;marker-end:url(#arrowBlue)}.arrowOrange{stroke:#fb923c;stroke-width:2.5;fill:none;marker-end:url(#arrowOrange)}
</style>
<defs>
<marker id="arrow" viewBox="0 0 10 10" refX="9" refY="5" markerWidth="7" markerHeight="7" orient="auto-start-reverse"><path d="M0 0L10 5L0 10z" fill="#94a3b8"/></marker>
<marker id="arrowBlue" viewBox="0 0 10 10" refX="9" refY="5" markerWidth="7" markerHeight="7" orient="auto-start-reverse"><path d="M0 0L10 5L0 10z" fill="#60a5fa"/></marker>
<marker id="arrowOrange" viewBox="0 0 10 10" refX="9" markerWidth="7" markerHeight="7" refY="5" orient="auto-start-reverse"><path d="M0 0L10 5L0 10z" fill="#fb923c"/></marker>
</defs>
<text class="title" x="40" y="42">Two calculation pipelines: shared RA/Dec, separate projections</text><text class="subtitle" x="40" y="65">Both branches start with the same ephemeris/catalogue direction, then diverge before rendering.</text><rect x="330" y="90" width="300" height="70" rx="12" fill="#1e1b4b" stroke="#8b5cf6"/><text class="label" x="344" y="112">Source direction</text><text class="small" x="344" y="129">Sun/moon/planets: Ptolemy RA/Dec</text><text class="small" x="344" y="146">Stars: catalogue RA/Dec</text><rect x="350" y="190" width="260" height="56" rx="12" fill="#172554" stroke="#60a5fa"/><text class="label" x="364" y="212">Shared time rotation</text><text class="small" x="364" y="229">GMST / SkyRotAngle</text><path class="arrow" d="M480 160L480 190"/><path class="arrowOrange" d="M430 246C350 268 245 268 235 300"/><path class="arrowBlue" d="M530 246C615 268 730 268 740 300"/><rect x="80" y="300" width="340" height="56" rx="12" fill="#2f1d0b" stroke="#92400e"/><text class="label" x="94" y="322">RA/Dec → celestial unit vector</text><text class="small" x="94" y="339">equatorialToCelestCoord()</text><path class="arrowOrange" d="M250 356L250 380"/><rect x="80" y="380" width="340" height="56" rx="12" fill="#2f1d0b" stroke="#92400e"/><text class="label" x="94" y="402">unit vector → lat/lon</text><text class="small" x="94" y="419">coordToLatLong()</text><path class="arrowOrange" d="M250 436L250 460"/><rect x="80" y="460" width="340" height="56" rx="12" fill="#2f1d0b" stroke="#92400e"/><text class="label" x="94" y="482">subtract sidereal rotation</text><text class="small" x="94" y="499">lon = lonCelest − SkyRotAngle</text><path class="arrowOrange" d="M250 516L250 540"/><rect x="80" y="540" width="340" height="56" rx="12" fill="#2f1d0b" stroke="#fb923c"/><text class="label" x="94" y="562">project to FE disc + assign z</text><text class="small" x="94" y="579">vaultCoordAt(lat, lon, height)</text><path class="arrowOrange" d="M250 596L250 620"/><rect x="80" y="620" width="340" height="56" rx="12" fill="#2f1d0b" stroke="#fb923c"/><text class="label" x="94" y="642">render dome marker</text><text class="small" x="94" y="659">whole-world / heavenly vault</text><rect x="590" y="300" width="340" height="56" rx="12" fill="#0b2545" stroke="#1d4ed8"/><text class="label" x="604" y="322">RA/Dec → celestial unit vector</text><text class="small" x="604" y="339">same input direction</text><path class="arrowBlue" d="M760 356L760 380"/><rect x="590" y="380" width="340" height="56" rx="12" fill="#0b2545" stroke="#1d4ed8"/><text class="label" x="604" y="402">standard local sky transform</text><text class="small" x="604" y="419">observer lat/lon + GMST</text><path class="arrowBlue" d="M760 436L760 460"/><rect x="590" y="460" width="340" height="56" rx="12" fill="#0b2545" stroke="#1d4ed8"/><text class="label" x="604" y="482">local vector → azimuth/elevation</text><text class="small" x="604" y="499">localGlobeCoordToAngles()</text><path class="arrowBlue" d="M760 516L760 540"/><rect x="590" y="540" width="340" height="56" rx="12" fill="#0b2545" stroke="#60a5fa"/><text class="label" x="604" y="562">project to observer cap</text><text class="small" x="604" y="579">opticalVaultProject()</text><path class="arrowBlue" d="M760 596L760 620"/><rect x="590" y="620" width="340" height="56" rx="12" fill="#0b2545" stroke="#60a5fa"/><text class="label" x="604" y="642">render optical marker</text><text class="small" x="604" y="659">observer / optical vault</text><rect x="300" y="710" width="400" height="60" rx="14" fill="#450a0a" stroke="#ef4444"/><text class="label" x="325" y="735">No reconciliation step</text><text class="small" x="325" y="755">The optical branch does not use observer → drawn FE vault as its sightline.</text></svg>
